# xmcd
#
# Track frame offsets:
# 150
# 21377
# 39603
# 57731
# 76120
# 92156
# 111640
# 132103
# 151034
# 167342
# 184518
# 202752
# 220792
# 244343
# 268621
#
# Disc length: 3745 seconds
#
#
# Revision: 2
# Processed by: cddbd v1.5.2PL0 Copyright (c) Steve Scherf et al.
# Submitted via: FreeRIP 2.951 
#
DISCID=c70e9f0f
DTITLE=Joss Stone - Mind, Body and Soul
DYEAR=1900
DGENRE=
TTITLE0=Joss Stone - Right To Be Wrong
TTITLE1=Joss Stone - Jet Lag
TTITLE2=Joss Stone - You Had Me
TTITLE3=Joss Stone - Spoiled
TTITLE4=Joss Stone - Don't Cha Wanna Ride
TTITLE5=Joss Stone - Less Is More
TTITLE6=Joss Stone - Security
TTITLE7=Joss Stone - Young At Heart
TTITLE8=Joss Stone - Snakes and Ladders
TTITLE9=Joss Stone - Understand
TTITLE10=Joss Stone - Don't Know How
TTITLE11=Joss Stone - Torn and Tattered
TTITLE12=Joss Stone - Killing Time
TTITLE13=Joss Stone - Sleep Like A Child
TTITLE14=Joss Stone - Holding Out For A Hero
EXTD=7243 8 66203 2 3
EXTT0=
EXTT1=
EXTT2=
EXTT3=
EXTT4=
EXTT5=
EXTT6=
EXTT7=
EXTT8=
EXTT9=
EXTT10=
EXTT11=
EXTT12=
EXTT13=
EXTT14=
PLAYORDER=
